<?xml version="1.0" encoding="UTF-8" standalone="no"?>
<!-- Generator: Adobe Illustrator 13.0.0, SVG Export Plug-In . SVG Version: 6.00 Build 14948)  -->

<svg
   xmlns:dc="http://purl.org/dc/elements/1.1/"
   xmlns:cc="http://creativecommons.org/ns#"
   xmlns:rdf="http://www.w3.org/1999/02/22-rdf-syntax-ns#"
   xmlns:svg="http://www.w3.org/2000/svg"
   xmlns="http://www.w3.org/2000/svg"
   xmlns:sodipodi="http://sodipodi.sourceforge.net/DTD/sodipodi-0.dtd"
   xmlns:inkscape="http://www.inkscape.org/namespaces/inkscape"
   version="1.1"
   id="Ebene_1"
   x="0px"
   y="0px"
   width="105"
   height="105"
   viewBox="0 0 105 105"
   enable-background="new 0 0 100 100"
   xml:space="preserve"
   inkscape:version="0.91 r13725"
   sodipodi:docname="12_1.svg"><metadata
     id="metadata9"><rdf:RDF><cc:Work
         rdf:about=""><dc:format>image/svg+xml</dc:format><dc:type
           rdf:resource="http://purl.org/dc/dcmitype/StillImage" /><dc:title /></cc:Work></rdf:RDF></metadata><defs
     id="defs7" /><sodipodi:namedview
     pagecolor="#ffffff"
     bordercolor="#666666"
     borderopacity="1"
     objecttolerance="10"
     gridtolerance="10"
     guidetolerance="10"
     inkscape:pageopacity="0"
     inkscape:pageshadow="2"
     inkscape:window-width="1920"
     inkscape:window-height="1018"
     id="namedview5"
     showgrid="true"
     inkscape:zoom="4.72"
     inkscape:cx="17.930974"
     inkscape:cy="47.891298"
     inkscape:window-x="-8"
     inkscape:window-y="-8"
     inkscape:window-maximized="1"
     inkscape:current-layer="Ebene_1"
     inkscape:snap-bbox="true"
     inkscape:bbox-nodes="false"
     inkscape:bbox-paths="false"
     inkscape:snap-bbox-midpoints="false"><inkscape:grid
       type="xygrid"
       id="grid3337" /></sodipodi:namedview><rect
     style="fill:#000000"
     id="rect4143"
     width="29.94236"
     height="5"
     x="-29.952387"
     y="50.29488"
     transform="matrix(0,-1,1,0,0,0)" /><rect
     style="fill:#000000"
     id="rect4143-7"
     width="30.148279"
     height="5"
     x="-0.039693728"
     y="49.959946" /><path
     style="fill:#000000;fill-rule:evenodd;stroke:none;stroke-width:1px;stroke-linecap:butt;stroke-linejoin:miter;stroke-opacity:1;fill-opacity:1"
     d="m 0,40 15,0 10,10 10,0 5,0 10,-10 0,-15 -10,-10 0,-15 5,0 0,15 5,5 0,-20 5,0 0,20 5,-5 0,-15 5,0 0,15 -10,10 0,15 -15,15 -15,0 -10,10 -15,0 0,-5 15,0 5,-5 -20,0 0,-5 20,0 -5,-5 -15,0 z"
     id="path4141"
     inkscape:connector-curvature="0" /></svg>